<svg width="22" height="26" viewBox="0 0 22 26" fill="none" xmlns="http://www.w3.org/2000/svg">
<path d="M15.8 0.431999C17.272 0.623999 18.4027 1.05067 19.192 1.712C20.0027 2.37333 20.5147 3.152 20.728 4.048C20.9627 4.944 20.92 5.86133 20.6 6.8C20.4933 7.16267 20.2693 7.792 19.928 8.688C19.608 9.56267 19.224 10.5867 18.776 11.76C18.3493 12.912 17.9013 14.096 17.432 15.312C16.9627 16.528 16.5253 17.6693 16.12 18.736C15.736 19.7813 15.416 20.6347 15.16 21.296C14.904 21.936 14.776 22.2667 14.776 22.288C14.2 23.632 13.688 24.5707 13.24 25.104C12.792 25.6373 12.2587 25.904 11.64 25.904C11.2133 25.904 10.7547 25.7867 10.264 25.552C9.79467 25.3173 9.38933 25.04 9.048 24.72C8.70667 24.3787 8.504 24.0587 8.44 23.76C8.58933 23.5893 8.664 23.376 8.664 23.12C8.664 22.864 8.64267 22.6293 8.6 22.416C8.55733 22.1813 8.52533 22.0427 8.504 22C8.46133 21.8933 8.312 21.52 8.056 20.88C7.82133 20.2187 7.50133 19.3867 7.096 18.384C6.712 17.36 6.27467 16.2293 5.784 14.992C5.29333 13.7547 4.792 12.496 4.28 11.216C3.768 9.91467 3.27733 8.66667 2.808 7.472C2.33867 6.256 1.912 5.168 1.528 4.208C1.144 3.248 0.834667 2.49067 0.6 1.936C0.386667 1.36 0.28 1.072 0.28 1.072C0.6 1.02933 1.10133 0.986666 1.784 0.943998C2.488 0.879999 3.24533 0.879999 4.056 0.943998C4.888 1.008 5.656 1.17867 6.36 1.456C7.08533 1.73333 7.61867 2.18133 7.96 2.8C8.04533 2.97067 8.17333 3.29067 8.344 3.76C8.536 4.208 8.73867 4.74133 8.952 5.36C9.18667 5.95733 9.41067 6.56533 9.624 7.184C9.83733 7.80267 10.0187 8.34667 10.168 8.816C10.3387 9.264 10.456 9.57333 10.52 9.744C10.6693 10.1493 10.8613 10.4907 11.096 10.768C11.3307 11.024 11.5653 11.1733 11.8 11.216C12.0347 11.2373 12.28 11.152 12.536 10.96C12.8133 10.768 13.0267 10.5013 13.176 10.16C13.24 10.0107 13.368 9.616 13.56 8.976C13.7733 8.31467 14.008 7.54667 14.264 6.672C14.5413 5.776 14.7973 4.89067 15.032 4.016C15.288 3.12 15.4907 2.34133 15.64 1.68C15.7893 1.01867 15.8427 0.602666 15.8 0.431999Z" fill="white"/>
</svg>
